<svg height="48" viewBox="0 -23 512.00002 512" width="48" xmlns="http://www.w3.org/2000/svg"><path d="m415.578125 386.589844c-121.515625 73.191406-213.375 22.507812-284.019531-70.488282-69.132813-91-27.40625-225.054687 70.488281-284.019531 97.894531-58.964843 230.929687-37.320312 284.019531 70.488281 50.484375 102.527344 27.402344 225.054688-70.488281 284.019532zm0 0" fill="#94cc4c"/><path d="m415.574219 386.589844c23.335937-14.054688 42.417969-31.714844 57.265625-51.863282-18.796875-40.464843-34.839844-90.6875-41.855469-151.292968-14.53125-125.53125-101.804687-165.507813-162.601563-178.03125-22.976562 5.1875-45.441406 14.09375-66.335937 26.679687-97.894531 58.964844-139.621094 193.019531-70.488281 284.019531 70.644531 92.996094 162.503906 143.679688 284.015625 70.488282zm0 0" fill="#83b739"/><path d="m147.941406 285.097656c-21.226562-35.238281-25.398437-78.605468-11.75-122.113281 13.53125-43.125 43.367188-81.15625 81.855469-104.339844 39.308594-23.671875 86.703125-32.714843 130.035156-24.804687 44.335938 8.09375 81.136719 33.109375 103.621094 70.4375 2.320313 3.851562 43.542969 65.800781 24.542969 149.683594-10.3125 45.519531-36.980469 82.164062-76.667969 106.066406-49.359375 29.730468-94.925781 40.945312-135.570313 24.125-87.5-36.214844-113.546874-94.867188-116.066406-99.054688zm0 0" fill="#cef48c"/><path d="m264.003906 384.152344c40.648438 16.820312 86.214844 5.605468 135.574219-24.125 25.15625-15.152344 45.070313-35.402344 58.914063-59.808594-12.367188-33.511719-22.363282-72.363281-27.507813-116.785156-9.265625-80.054688-48.121094-125.3125-90.8125-150.84375-41.132813-5.519532-85.191406 3.808594-122.125 26.054687-38.492187 23.183594-68.324219 61.214844-81.855469 104.339844-13.648437 43.507813-9.476562 86.875 11.75 122.113281 2.519532 4.1875 28.566406 62.839844 116.0625 99.054688zm0 0" fill="#c2ef6a"/><path d="m318.238281 431.816406c-121.515625 73.1875-213.375 22.503906-284.019531-70.492187-69.132812-91-27.40625-225.054688 70.488281-284.019531 97.894531-58.960938 230.929688-37.320313 284.019531 70.492187 50.484376 102.523437 27.40625 225.054687-70.488281 284.019531zm0 0" fill="#a3db63"/><path d="m50.601562 330.320312c-21.226562-35.238281-25.398437-78.605468-11.75-122.113281 13.53125-43.125 43.367188-81.152343 81.855469-104.335937 39.308594-23.675782 86.703125-32.71875 130.035157-24.808594 44.335937 8.097656 81.136718 33.113281 103.621093 70.4375 2.320313 3.851562 49.523438 65.800781 24.542969 149.683594-13.320312 44.734375-36.980469 82.164062-76.667969 106.070312-49.359375 29.726563-94.425781 39.675782-135.570312 24.121094-69.328125-26.207031-113.542969-94.863281-116.066407-99.054688zm0 0" fill="#cef48c"/><g fill="#f4ffb3"><path d="m295.890625 139.792969c-42.050781-32.859375-104.144531-46.210938-169.375 4.015625-15.734375 12.117187-13.921875 36.390625 3.457031 46l61.476563 33.988281c12.160156 6.726563 26.988281 6.453125 38.890625-.71875l62.875-37.871094c16.597656-9.996093 17.9375-33.484375 2.675781-45.414062zm0 0"/><path d="m352.390625 233.601562c9.386719 52.535157-7.84375 113.664063-82.742187 147.839844-18.066407 8.246094-38.675782-4.707031-39.042969-24.5625l-1.300781-70.234375c-.257813-13.894531 6.917968-26.871093 18.820312-34.042969l62.875-37.871093c16.59375-9.996094 37.984375-.199219 41.390625 18.871093zm0 0"/><path d="m111.132812 218.773438c-17.324218-9.578126-38.753906 1.679687-40.78125 21.363281-3.042968 29.519531 3.117188 60.234375 19.605469 87.613281 16.492188 27.378906 40.761719 47.183594 68.277344 58.296875 18.351563 7.414063 38.324219-6.269531 37.957031-26.054687l-1.347656-72.710938c-.257812-13.894531-7.90625-26.597656-20.070312-33.320312zm0 0"/></g></svg>