<svg height="48" viewBox="0 0 128 128" width="48" xmlns="http://www.w3.org/2000/svg"><g><g><path d="m63.694 14.55a121.875 121.875 0 0 0 -4.524 17.95l2.08 4.417h5.5l2.08-4.417s-.58-14.083 3.337-26c-4.253.593-7.061 4-8.473 8.05z" fill="#a5cc2a"/><path d="m64.306 14.55a121.875 121.875 0 0 1 4.524 17.95l-2.08 4.417h-5.5l-2.08-4.417s.58-14.083-3.337-26c4.253.593 7.061 4 8.473 8.05z" fill="#bae543"/><path d="m68.83 32.5h-9.66c-2 18.851-34.98 26.279-34.98 46.644s17.14 34.981 39.81 34.981 39.81-14.615 39.81-34.981-32.98-27.793-34.98-46.644z" fill="#b560e8"/><path d="m67.033 32.5h-6.066c-1.256 18.851-21.967 26.279-21.967 46.644s10.764 34.981 25 34.981 25-14.615 25-34.981-20.711-27.793-21.967-46.644z" fill="#954acd"/><path d="m65.183 32.5h-2.366c-.49 18.851-8.567 26.279-8.567 46.644s4.2 34.981 9.75 34.981 9.75-14.615 9.75-34.981-8.077-27.793-8.567-46.644z" fill="#b560e8"/></g><g fill="#1e0c30"><path d="m105.56 79.145c0-11.449-9.382-18.9-18.455-26.1-8.038-6.38-15.629-12.409-16.529-20.7-.035-1.09-.374-14.266 3.257-25.3a1.751 1.751 0 0 0 -1.907-2.28 10.884 10.884 0 0 0 -6.319 3.235 14.02 14.02 0 0 0 -1.616 2.029 14.346 14.346 0 0 0 -1.609-2.041 10.876 10.876 0 0 0 -6.308-3.219 1.751 1.751 0 0 0 -1.907 2.28c3.63 11.038 3.292 24.21 3.257 25.3-.9 8.278-8.871 14.613-15.907 20.2a1.75 1.75 0 1 0 2.177 2.74 87.8 87.8 0 0 0 10.691-9.489c-1.662 2.568-3.6 5.023-5.584 7.532-5.679 7.178-11.551 14.6-11.551 25.812 0 13.322 4.408 24.356 11.507 30.748-13.81-4.831-22.817-16.3-22.817-30.748a18.58 18.58 0 0 1 4.345-11.56 1.75 1.75 0 1 0 -2.771-2.139c-3.414 4.423-5.074 8.905-5.074 13.7 0 20.324 15.945 35.316 38.353 36.626a23.375 23.375 0 0 1 -2.652 4.6 1.751 1.751 0 0 0 2.556 2.385 1.8 1.8 0 0 0 .18-.2c.136-.176.7-.931 1.373-2.013v.956a1.75 1.75 0 0 0 3.5 0v-.956c.67 1.082 1.237 1.837 1.373 2.013a1.8 1.8 0 0 0 .18.2l.01.01a1.744 1.744 0 0 0 2.469-.066 1.755 1.755 0 0 0 .1-2.3 23.425 23.425 0 0 1 -2.677-4.636c22.411-1.303 38.355-16.295 38.355-36.619zm-41.536 33.228h-.024-.024c-3.352-.054-7.976-11.596-7.976-33.228 0-10.339 2.176-17.391 4.28-24.21a91.611 91.611 0 0 0 3.72-15.317 91.611 91.611 0 0 0 3.72 15.317c2.1 6.819 4.28 13.871 4.28 24.21 0 21.632-4.624 33.174-7.976 33.228zm4.076-101.92a8.175 8.175 0 0 1 1.428-1.153 75.2 75.2 0 0 0 -1.85 10.181c-.506-1.8-1.074-3.657-1.716-5.506-.021-.06-.049-.114-.07-.174a11.8 11.8 0 0 1 2.208-3.348zm-8.217-.014a12.815 12.815 0 0 1 2.772 4.685 118.6 118.6 0 0 1 4.078 15.626h-5.78a88.916 88.916 0 0 0 -2.481-21.45 8.111 8.111 0 0 1 1.413 1.139zm-19.133 68.706c0-9.995 5.244-16.624 10.8-23.641 3.026-3.824 6.11-7.726 8.279-12.22-.772 3.744-1.814 7.131-2.889 10.618-2.185 7.068-4.44 14.375-4.44 25.243 0 12.8 1.747 25.68 5.521 32.253-10.291-3.486-17.271-15.985-17.271-32.253zm38.35 30.794a31.088 31.088 0 0 0 6.976-9.315 1.75 1.75 0 1 0 -3.128-1.57c-3.118 6.209-7.668 10.466-12.945 12.3 3.757-6.586 5.5-19.434 5.5-32.209 0-10.868-2.255-18.175-4.436-25.243-1.075-3.487-2.117-6.874-2.889-10.618 2.169 4.494 5.253 8.4 8.279 12.22 5.552 7.017 10.8 13.646 10.8 23.641a50.611 50.611 0 0 1 -1.063 10.5 1.749 1.749 0 1 0 3.422.728 54.034 54.034 0 0 0 1.134-11.228c0-11.212-5.872-18.634-11.551-25.812-2-2.529-3.954-5-5.624-7.6a93.171 93.171 0 0 0 11.354 10.056c8.81 6.993 17.131 13.6 17.131 23.356 0 14.492-9.07 25.992-22.96 30.794z"/><path d="m34.378 62.475a1.746 1.746 0 0 0 1.176-.454c.885-.8 1.861-1.647 2.982-2.579a1.75 1.75 0 0 0 -2.236-2.691c-1.16.964-2.173 1.84-3.1 2.678a1.75 1.75 0 0 0 1.176 3.046z"/><path d="m97.81 77.4a1.75 1.75 0 0 0 -1.75 1.75 26.111 26.111 0 0 1 -1.107 7.6 1.75 1.75 0 0 0 3.347 1.01 29.592 29.592 0 0 0 1.258-8.615 1.75 1.75 0 0 0 -1.748-1.745z"/></g></g></svg>